<?xml version="1.0" encoding="UTF-8" standalone="no"?>
<!DOCTYPE svg PUBLIC "-//W3C//DTD SVG 1.1//EN"
 "http://www.w3.org/Graphics/SVG/1.1/DTD/svg11.dtd">
<!-- Generated by graphviz version 2.40.1 (20161225.0304)
 -->
<!-- Title: dependencies Pages: 1 -->
<svg width="2344pt" height="284pt"
 viewBox="0.00 0.00 2344.00 284.00" xmlns="http://www.w3.org/2000/svg" xmlns:xlink="http://www.w3.org/1999/xlink">
<g id="graph0" class="graph" transform="scale(1 1) rotate(0) translate(4 280)">
<title>dependencies</title>
<polygon fill="#ffffff" stroke="transparent" points="-4,4 -4,-280 2340,-280 2340,4 -4,4"/>
<text text-anchor="start" x="1147.0091" y="-42.4" font-family="sans-serif" font-weight="bold" font-size="14.00" fill="#000000">Legend</text>
<polygon fill="#ffffb3" stroke="transparent" points="934,-10 934,-30 954,-30 954,-10 934,-10"/>
<text text-anchor="start" x="957.629" y="-15.4" font-family="sans-serif" font-size="14.00" fill="#000000"> &#160;Declarations</text>
<polygon fill="#8dd3c7" stroke="transparent" points="1047,-10 1047,-30 1067,-30 1067,-10 1047,-10"/>
<text text-anchor="start" x="1070.7251" y="-15.4" font-family="sans-serif" font-size="14.00" fill="#000000"> &#160;Module</text>
<polygon fill="#80b1d3" stroke="transparent" points="1133,-10 1133,-30 1153,-30 1153,-10 1133,-10"/>
<text text-anchor="start" x="1156.7812" y="-15.4" font-family="sans-serif" font-size="14.00" fill="#000000"> &#160;Bootstrap</text>
<polygon fill="#fdb462" stroke="transparent" points="1230,-10 1230,-30 1250,-30 1250,-10 1230,-10"/>
<text text-anchor="start" x="1253.6732" y="-15.4" font-family="sans-serif" font-size="14.00" fill="#000000"> &#160;Providers</text>
<polygon fill="#fb8072" stroke="transparent" points="1326,-10 1326,-30 1346,-30 1346,-10 1326,-10"/>
<text text-anchor="start" x="1349.7258" y="-15.4" font-family="sans-serif" font-size="14.00" fill="#000000"> &#160;Exports</text>
<g id="clust1" class="cluster">
<title>cluster_FsListModule</title>
<polygon fill="none" stroke="#000000" stroke-dasharray="1,5" points="8,-70 8,-268 2328,-268 2328,-70 8,-70"/>
</g>
<g id="clust2" class="cluster">
<title>cluster_FsListModule_declarations</title>
<polygon fill="none" stroke="#000000" points="16,-78 16,-130 2320,-130 2320,-78 16,-78"/>
</g>
<g id="clust19" class="cluster">
<title>cluster_FsListModule_exports</title>
<polygon fill="none" stroke="#000000" points="634,-208 634,-260 1696,-260 1696,-208 634,-208"/>
</g>
<!-- FsListComponent -->
<g id="node1" class="node">
<title>FsListComponent</title>
<polygon fill="#ffffb3" stroke="#000000" points="2312.3385,-122 2195.6615,-122 2195.6615,-86 2312.3385,-86 2312.3385,-122"/>
<text text-anchor="middle" x="2254" y="-99.8" font-family="Times,serif" font-size="14.00" fill="#000000">FsListComponent</text>
</g>
<!-- FsListModule -->
<g id="node16" class="node">
<title>FsListModule</title>
<polygon fill="#8dd3c7" stroke="#000000" points="1239.0564,-187 1236.0564,-191 1215.0564,-191 1212.0564,-187 1144.9436,-187 1144.9436,-151 1239.0564,-151 1239.0564,-187"/>
<text text-anchor="middle" x="1192" y="-164.8" font-family="Times,serif" font-size="14.00" fill="#000000">FsListModule</text>
</g>
<!-- FsListComponent&#45;&gt;FsListModule -->
<g id="edge1" class="edge">
<title>FsListComponent&#45;&gt;FsListModule</title>
<path fill="none" stroke="#000000" d="M2254,-122.0267C2254,-142.7672 2254,-174 2254,-174 2254,-174 1249.3485,-174 1249.3485,-174"/>
<polygon fill="#000000" stroke="#000000" points="1249.3486,-170.5001 1239.3485,-174 1249.3485,-177.5001 1249.3486,-170.5001"/>
</g>
<!-- FsRowComponent -->
<g id="node2" class="node">
<title>FsRowComponent</title>
<polygon fill="#ffffb3" stroke="#000000" points="2177.5028,-122 2056.4972,-122 2056.4972,-86 2177.5028,-86 2177.5028,-122"/>
<text text-anchor="middle" x="2117" y="-99.8" font-family="Times,serif" font-size="14.00" fill="#000000">FsRowComponent</text>
</g>
<!-- FsRowComponent&#45;&gt;FsListModule -->
<g id="edge2" class="edge">
<title>FsRowComponent&#45;&gt;FsListModule</title>
<path fill="none" stroke="#000000" d="M2117,-122.308C2117,-142.1455 2117,-171 2117,-171 2117,-171 1249.1426,-171 1249.1426,-171"/>
<polygon fill="#000000" stroke="#000000" points="1249.1426,-167.5001 1239.1426,-171 1249.1425,-174.5001 1249.1426,-167.5001"/>
</g>
<!-- FsCellComponent -->
<g id="node3" class="node">
<title>FsCellComponent</title>
<polygon fill="#ffffb3" stroke="#000000" points="2038.892,-122 1921.108,-122 1921.108,-86 2038.892,-86 2038.892,-122"/>
<text text-anchor="middle" x="1980" y="-99.8" font-family="Times,serif" font-size="14.00" fill="#000000">FsCellComponent</text>
</g>
<!-- FsCellComponent&#45;&gt;FsListModule -->
<g id="edge3" class="edge">
<title>FsCellComponent&#45;&gt;FsListModule</title>
<path fill="none" stroke="#000000" d="M1980,-122.1686C1980,-141.0898 1980,-168 1980,-168 1980,-168 1249.2254,-168 1249.2254,-168"/>
<polygon fill="#000000" stroke="#000000" points="1249.2254,-164.5001 1239.2254,-168 1249.2253,-171.5001 1249.2254,-164.5001"/>
</g>
<!-- FsFooterRowComponent -->
<g id="node4" class="node">
<title>FsFooterRowComponent</title>
<polygon fill="#ffffb3" stroke="#000000" points="1902.5518,-122 1745.4482,-122 1745.4482,-86 1902.5518,-86 1902.5518,-122"/>
<text text-anchor="middle" x="1824" y="-99.8" font-family="Times,serif" font-size="14.00" fill="#000000">FsFooterRowComponent</text>
</g>
<!-- FsFooterRowComponent&#45;&gt;FsListModule -->
<g id="edge4" class="edge">
<title>FsFooterRowComponent&#45;&gt;FsListModule</title>
<path fill="none" stroke="#000000" d="M1824,-122.302C1824,-140.2699 1824,-165 1824,-165 1824,-165 1249.2443,-165 1249.2443,-165"/>
<polygon fill="#000000" stroke="#000000" points="1249.2443,-161.5001 1239.2443,-165 1249.2442,-168.5001 1249.2443,-161.5001"/>
</g>
<!-- FsFooterCellComponent -->
<g id="node5" class="node">
<title>FsFooterCellComponent</title>
<polygon fill="#ffffb3" stroke="#000000" points="1727.441,-122 1572.559,-122 1572.559,-86 1727.441,-86 1727.441,-122"/>
<text text-anchor="middle" x="1650" y="-99.8" font-family="Times,serif" font-size="14.00" fill="#000000">FsFooterCellComponent</text>
</g>
<!-- FsFooterCellComponent&#45;&gt;FsListModule -->
<g id="edge5" class="edge">
<title>FsFooterCellComponent&#45;&gt;FsListModule</title>
<path fill="none" stroke="#000000" d="M1611.1595,-122.0352C1611.1595,-138.7344 1611.1595,-161 1611.1595,-161 1611.1595,-161 1249.2681,-161 1249.2681,-161"/>
<polygon fill="#000000" stroke="#000000" points="1249.2682,-157.5001 1239.2681,-161 1249.2681,-164.5001 1249.2682,-157.5001"/>
</g>
<!-- FsStatusComponent -->
<g id="node6" class="node">
<title>FsStatusComponent</title>
<polygon fill="#ffffb3" stroke="#000000" points="1554.2828,-122 1425.7172,-122 1425.7172,-86 1554.2828,-86 1554.2828,-122"/>
<text text-anchor="middle" x="1490" y="-99.8" font-family="Times,serif" font-size="14.00" fill="#000000">FsStatusComponent</text>
</g>
<!-- FsStatusComponent&#45;&gt;FsListModule -->
<g id="edge6" class="edge">
<title>FsStatusComponent&#45;&gt;FsListModule</title>
<path fill="none" stroke="#000000" d="M1467.2495,-122.2819C1467.2495,-137.9478 1467.2495,-158 1467.2495,-158 1467.2495,-158 1249.3171,-158 1249.3171,-158"/>
<polygon fill="#000000" stroke="#000000" points="1249.3171,-154.5001 1239.3171,-158 1249.317,-161.5001 1249.3171,-154.5001"/>
</g>
<!-- FsHeadComponent -->
<g id="node7" class="node">
<title>FsHeadComponent</title>
<polygon fill="#ffffb3" stroke="#000000" points="1408.0954,-122 1283.9046,-122 1283.9046,-86 1408.0954,-86 1408.0954,-122"/>
<text text-anchor="middle" x="1346" y="-99.8" font-family="Times,serif" font-size="14.00" fill="#000000">FsHeadComponent</text>
</g>
<!-- FsHeadComponent&#45;&gt;FsListModule -->
<g id="edge7" class="edge">
<title>FsHeadComponent&#45;&gt;FsListModule</title>
<path fill="none" stroke="#000000" d="M1367.232,-122.1243C1367.232,-136.7832 1367.232,-155 1367.232,-155 1367.232,-155 1249.4203,-155 1249.4203,-155"/>
<polygon fill="#000000" stroke="#000000" points="1249.4203,-151.5001 1239.4203,-155 1249.4203,-158.5001 1249.4203,-151.5001"/>
</g>
<!-- FsHeadCellComponent -->
<g id="node8" class="node">
<title>FsHeadCellComponent</title>
<polygon fill="#ffffb3" stroke="#000000" points="1265.9284,-122 1118.0716,-122 1118.0716,-86 1265.9284,-86 1265.9284,-122"/>
<text text-anchor="middle" x="1192" y="-99.8" font-family="Times,serif" font-size="14.00" fill="#000000">FsHeadCellComponent</text>
</g>
<!-- FsHeadCellComponent&#45;&gt;FsListModule -->
<g id="edge8" class="edge">
<title>FsHeadCellComponent&#45;&gt;FsListModule</title>
<path fill="none" stroke="#000000" d="M1192,-122.1061C1192,-122.1061 1192,-140.991 1192,-140.991"/>
<polygon fill="#000000" stroke="#000000" points="1188.5001,-140.9909 1192,-150.991 1195.5001,-140.991 1188.5001,-140.9909"/>
</g>
<!-- FsBodyComponent -->
<g id="node9" class="node">
<title>FsBodyComponent</title>
<polygon fill="#ffffb3" stroke="#000000" points="1100.3962,-122 975.6038,-122 975.6038,-86 1100.3962,-86 1100.3962,-122"/>
<text text-anchor="middle" x="1038" y="-99.8" font-family="Times,serif" font-size="14.00" fill="#000000">FsBodyComponent</text>
</g>
<!-- FsBodyComponent&#45;&gt;FsListModule -->
<g id="edge9" class="edge">
<title>FsBodyComponent&#45;&gt;FsListModule</title>
<path fill="none" stroke="#000000" d="M1057.1576,-122.1243C1057.1576,-136.7832 1057.1576,-155 1057.1576,-155 1057.1576,-155 1134.8387,-155 1134.8387,-155"/>
<polygon fill="#000000" stroke="#000000" points="1134.8387,-158.5001 1144.8387,-155 1134.8386,-151.5001 1134.8387,-158.5001"/>
</g>
<!-- FsFooterComponent -->
<g id="node10" class="node">
<title>FsFooterComponent</title>
<polygon fill="#ffffb3" stroke="#000000" points="957.608,-122 826.392,-122 826.392,-86 957.608,-86 957.608,-122"/>
<text text-anchor="middle" x="892" y="-99.8" font-family="Times,serif" font-size="14.00" fill="#000000">FsFooterComponent</text>
</g>
<!-- FsFooterComponent&#45;&gt;FsListModule -->
<g id="edge10" class="edge">
<title>FsFooterComponent&#45;&gt;FsListModule</title>
<path fill="none" stroke="#000000" d="M954.0269,-122.2819C954.0269,-137.9478 954.0269,-158 954.0269,-158 954.0269,-158 1134.6996,-158 1134.6996,-158"/>
<polygon fill="#000000" stroke="#000000" points="1134.6997,-161.5001 1144.6996,-158 1134.6996,-154.5001 1134.6997,-161.5001"/>
</g>
<!-- FsPaginationComponent -->
<g id="node11" class="node">
<title>FsPaginationComponent</title>
<polygon fill="#ffffb3" stroke="#000000" points="808.4438,-122 653.5562,-122 653.5562,-86 808.4438,-86 808.4438,-122"/>
<text text-anchor="middle" x="731" y="-99.8" font-family="Times,serif" font-size="14.00" fill="#000000">FsPaginationComponent</text>
</g>
<!-- FsPaginationComponent&#45;&gt;FsListModule -->
<g id="edge11" class="edge">
<title>FsPaginationComponent&#45;&gt;FsListModule</title>
<path fill="none" stroke="#000000" d="M794.5344,-122.0352C794.5344,-138.7344 794.5344,-161 794.5344,-161 794.5344,-161 1134.8446,-161 1134.8446,-161"/>
<polygon fill="#000000" stroke="#000000" points="1134.8447,-164.5001 1144.8446,-161 1134.8446,-157.5001 1134.8447,-164.5001"/>
</g>
<!-- FsListColumnDirective -->
<g id="node12" class="node">
<title>FsListColumnDirective</title>
<polygon fill="#ffffb3" stroke="#000000" points="636.2063,-122 487.7937,-122 487.7937,-86 636.2063,-86 636.2063,-122"/>
<text text-anchor="middle" x="562" y="-99.8" font-family="Times,serif" font-size="14.00" fill="#000000">FsListColumnDirective</text>
</g>
<!-- FsListColumnDirective&#45;&gt;FsListModule -->
<g id="edge12" class="edge">
<title>FsListColumnDirective&#45;&gt;FsListModule</title>
<path fill="none" stroke="#000000" d="M562,-122.302C562,-140.2699 562,-165 562,-165 562,-165 1134.9053,-165 1134.9053,-165"/>
<polygon fill="#000000" stroke="#000000" points="1134.9053,-168.5001 1144.9053,-165 1134.9052,-161.5001 1134.9053,-168.5001"/>
</g>
<!-- FsListCellDirective -->
<g id="node13" class="node">
<title>FsListCellDirective</title>
<polygon fill="#ffffb3" stroke="#000000" points="470.4215,-122 343.5785,-122 343.5785,-86 470.4215,-86 470.4215,-122"/>
<text text-anchor="middle" x="407" y="-99.8" font-family="Times,serif" font-size="14.00" fill="#000000">FsListCellDirective</text>
</g>
<!-- FsListCellDirective&#45;&gt;FsListModule -->
<g id="edge13" class="edge">
<title>FsListCellDirective&#45;&gt;FsListModule</title>
<path fill="none" stroke="#000000" d="M407,-122.1686C407,-141.0898 407,-168 407,-168 407,-168 1134.6626,-168 1134.6626,-168"/>
<polygon fill="#000000" stroke="#000000" points="1134.6626,-171.5001 1144.6626,-168 1134.6625,-164.5001 1134.6626,-171.5001"/>
</g>
<!-- FsListHeaderDirective -->
<g id="node14" class="node">
<title>FsListHeaderDirective</title>
<polygon fill="#ffffb3" stroke="#000000" points="326.0003,-122 181.9997,-122 181.9997,-86 326.0003,-86 326.0003,-122"/>
<text text-anchor="middle" x="254" y="-99.8" font-family="Times,serif" font-size="14.00" fill="#000000">FsListHeaderDirective</text>
</g>
<!-- FsListHeaderDirective&#45;&gt;FsListModule -->
<g id="edge14" class="edge">
<title>FsListHeaderDirective&#45;&gt;FsListModule</title>
<path fill="none" stroke="#000000" d="M254,-122.308C254,-142.1455 254,-171 254,-171 254,-171 1134.8416,-171 1134.8416,-171"/>
<polygon fill="#000000" stroke="#000000" points="1134.8416,-174.5001 1144.8416,-171 1134.8416,-167.5001 1134.8416,-174.5001"/>
</g>
<!-- FsListFooterDirective -->
<g id="node15" class="node">
<title>FsListFooterDirective</title>
<polygon fill="#ffffb3" stroke="#000000" points="163.6373,-122 24.3627,-122 24.3627,-86 163.6373,-86 163.6373,-122"/>
<text text-anchor="middle" x="94" y="-99.8" font-family="Times,serif" font-size="14.00" fill="#000000">FsListFooterDirective</text>
</g>
<!-- FsListFooterDirective&#45;&gt;FsListModule -->
<g id="edge15" class="edge">
<title>FsListFooterDirective&#45;&gt;FsListModule</title>
<path fill="none" stroke="#000000" d="M94,-122.0267C94,-142.7672 94,-174 94,-174 94,-174 1134.8203,-174 1134.8203,-174"/>
<polygon fill="#000000" stroke="#000000" points="1134.8203,-177.5001 1144.8203,-174 1134.8203,-170.5001 1134.8203,-177.5001"/>
</g>
<!-- FsListComponent  -->
<g id="node17" class="node">
<title>FsListComponent </title>
<polygon fill="#fb8072" stroke="#000000" points="1687.8381,-252 1568.1619,-252 1568.1619,-216 1687.8381,-216 1687.8381,-252"/>
<text text-anchor="middle" x="1628" y="-229.8" font-family="Times,serif" font-size="14.00" fill="#000000">FsListComponent </text>
</g>
<!-- FsListModule&#45;&gt;FsListComponent  -->
<g id="edge16" class="edge">
<title>FsListModule&#45;&gt;FsListComponent </title>
<path fill="none" stroke="#000000" stroke-dasharray="5,2" d="M1239.2414,-178C1356.1419,-178 1649.5393,-178 1649.5393,-178 1649.5393,-178 1649.5393,-205.973 1649.5393,-205.973"/>
<polygon fill="#000000" stroke="#000000" points="1646.0394,-205.973 1649.5393,-215.973 1653.0394,-205.973 1646.0394,-205.973"/>
</g>
<!-- FsRowComponent  -->
<g id="node18" class="node">
<title>FsRowComponent </title>
<polygon fill="#fb8072" stroke="#000000" points="1550.0038,-252 1425.9962,-252 1425.9962,-216 1550.0038,-216 1550.0038,-252"/>
<text text-anchor="middle" x="1488" y="-229.8" font-family="Times,serif" font-size="14.00" fill="#000000">FsRowComponent </text>
</g>
<!-- FsListModule&#45;&gt;FsRowComponent  -->
<g id="edge17" class="edge">
<title>FsListModule&#45;&gt;FsRowComponent </title>
<path fill="none" stroke="#000000" stroke-dasharray="5,2" d="M1239.0787,-181C1327.3156,-181 1508.7505,-181 1508.7505,-181 1508.7505,-181 1508.7505,-205.7604 1508.7505,-205.7604"/>
<polygon fill="#000000" stroke="#000000" points="1505.2506,-205.7604 1508.7505,-215.7604 1512.2506,-205.7604 1505.2506,-205.7604"/>
</g>
<!-- FsCellComponent  -->
<g id="node19" class="node">
<title>FsCellComponent </title>
<polygon fill="#fb8072" stroke="#000000" points="1407.8926,-252 1286.1074,-252 1286.1074,-216 1407.8926,-216 1407.8926,-252"/>
<text text-anchor="middle" x="1347" y="-229.8" font-family="Times,serif" font-size="14.00" fill="#000000">FsCellComponent </text>
</g>
<!-- FsListModule&#45;&gt;FsCellComponent  -->
<g id="edge18" class="edge">
<title>FsListModule&#45;&gt;FsCellComponent </title>
<path fill="none" stroke="#000000" stroke-dasharray="5,2" d="M1239.1353,-184C1277.9985,-184 1326.768,-184 1326.768,-184 1326.768,-184 1326.768,-205.9489 1326.768,-205.9489"/>
<polygon fill="#000000" stroke="#000000" points="1323.2681,-205.9488 1326.768,-215.9489 1330.2681,-205.9489 1323.2681,-205.9488"/>
</g>
<!-- FsListColumnDirective  -->
<g id="node20" class="node">
<title>FsListColumnDirective </title>
<polygon fill="#fb8072" stroke="#000000" points="1267.7065,-252 1116.2935,-252 1116.2935,-216 1267.7065,-216 1267.7065,-252"/>
<text text-anchor="middle" x="1192" y="-229.8" font-family="Times,serif" font-size="14.00" fill="#000000">FsListColumnDirective </text>
</g>
<!-- FsListModule&#45;&gt;FsListColumnDirective  -->
<g id="edge19" class="edge">
<title>FsListModule&#45;&gt;FsListColumnDirective </title>
<path fill="none" stroke="#000000" stroke-dasharray="5,2" d="M1192,-187.1061C1192,-187.1061 1192,-205.991 1192,-205.991"/>
<polygon fill="#000000" stroke="#000000" points="1188.5001,-205.9909 1192,-215.991 1195.5001,-205.991 1188.5001,-205.9909"/>
</g>
<!-- FsListCellDirective  -->
<g id="node21" class="node">
<title>FsListCellDirective </title>
<polygon fill="#fb8072" stroke="#000000" points="1097.9208,-252 968.0792,-252 968.0792,-216 1097.9208,-216 1097.9208,-252"/>
<text text-anchor="middle" x="1033" y="-229.8" font-family="Times,serif" font-size="14.00" fill="#000000">FsListCellDirective </text>
</g>
<!-- FsListModule&#45;&gt;FsListCellDirective  -->
<g id="edge20" class="edge">
<title>FsListModule&#45;&gt;FsListCellDirective </title>
<path fill="none" stroke="#000000" stroke-dasharray="5,2" d="M1144.9303,-184C1092.902,-184 1016.3547,-184 1016.3547,-184 1016.3547,-184 1016.3547,-205.9489 1016.3547,-205.9489"/>
<polygon fill="#000000" stroke="#000000" points="1012.8548,-205.9488 1016.3547,-215.9489 1019.8548,-205.9489 1012.8548,-205.9488"/>
</g>
<!-- FsListHeaderDirective  -->
<g id="node22" class="node">
<title>FsListHeaderDirective </title>
<polygon fill="#fb8072" stroke="#000000" points="950.4994,-252 803.5006,-252 803.5006,-216 950.4994,-216 950.4994,-252"/>
<text text-anchor="middle" x="877" y="-229.8" font-family="Times,serif" font-size="14.00" fill="#000000">FsListHeaderDirective </text>
</g>
<!-- FsListModule&#45;&gt;FsListHeaderDirective  -->
<g id="edge21" class="edge">
<title>FsListModule&#45;&gt;FsListHeaderDirective </title>
<path fill="none" stroke="#000000" stroke-dasharray="5,2" d="M1144.9069,-181C1059.6518,-181 888.4729,-181 888.4729,-181 888.4729,-181 888.4729,-205.7604 888.4729,-205.7604"/>
<polygon fill="#000000" stroke="#000000" points="884.9729,-205.7604 888.4729,-215.7604 891.9729,-205.7604 884.9729,-205.7604"/>
</g>
<!-- FsListFooterDirective  -->
<g id="node23" class="node">
<title>FsListFooterDirective </title>
<polygon fill="#fb8072" stroke="#000000" points="785.6369,-252 642.3631,-252 642.3631,-216 785.6369,-216 785.6369,-252"/>
<text text-anchor="middle" x="714" y="-229.8" font-family="Times,serif" font-size="14.00" fill="#000000">FsListFooterDirective </text>
</g>
<!-- FsListModule&#45;&gt;FsListFooterDirective  -->
<g id="edge22" class="edge">
<title>FsListModule&#45;&gt;FsListFooterDirective </title>
<path fill="none" stroke="#000000" stroke-dasharray="5,2" d="M1144.5489,-178C1024.7734,-178 719.6734,-178 719.6734,-178 719.6734,-178 719.6734,-205.973 719.6734,-205.973"/>
<polygon fill="#000000" stroke="#000000" points="716.1735,-205.973 719.6734,-215.973 723.1735,-205.973 716.1735,-205.973"/>
</g>
</g>
</svg>
