<?xml version="1.0" encoding="UTF-8" standalone="no"?>
<!DOCTYPE svg PUBLIC "-//W3C//DTD SVG 1.1//EN"
 "http://www.w3.org/Graphics/SVG/1.1/DTD/svg11.dtd">
<!-- Generated by graphviz version 2.40.1 (20161225.0304)
 -->
<!-- Title: dependencies Pages: 1 -->
<svg width="2815pt" height="355pt"
 viewBox="0.00 0.00 2815.00 355.00" xmlns="http://www.w3.org/2000/svg" xmlns:xlink="http://www.w3.org/1999/xlink">
<g id="graph0" class="graph" transform="scale(1 1) rotate(0) translate(4 351)">
<title>dependencies</title>
<polygon fill="#ffffff" stroke="transparent" points="-4,4 -4,-351 2811,-351 2811,4 -4,4"/>
<text text-anchor="start" x="1382.5091" y="-42.4" font-family="sans-serif" font-weight="bold" font-size="14.00" fill="#000000">Legend</text>
<polygon fill="#ffffb3" stroke="transparent" points="1169.5,-10 1169.5,-30 1189.5,-30 1189.5,-10 1169.5,-10"/>
<text text-anchor="start" x="1193.129" y="-15.4" font-family="sans-serif" font-size="14.00" fill="#000000"> &#160;Declarations</text>
<polygon fill="#8dd3c7" stroke="transparent" points="1282.5,-10 1282.5,-30 1302.5,-30 1302.5,-10 1282.5,-10"/>
<text text-anchor="start" x="1306.2251" y="-15.4" font-family="sans-serif" font-size="14.00" fill="#000000"> &#160;Module</text>
<polygon fill="#80b1d3" stroke="transparent" points="1368.5,-10 1368.5,-30 1388.5,-30 1388.5,-10 1368.5,-10"/>
<text text-anchor="start" x="1392.2812" y="-15.4" font-family="sans-serif" font-size="14.00" fill="#000000"> &#160;Bootstrap</text>
<polygon fill="#fdb462" stroke="transparent" points="1465.5,-10 1465.5,-30 1485.5,-30 1485.5,-10 1465.5,-10"/>
<text text-anchor="start" x="1489.1732" y="-15.4" font-family="sans-serif" font-size="14.00" fill="#000000"> &#160;Providers</text>
<polygon fill="#fb8072" stroke="transparent" points="1561.5,-10 1561.5,-30 1581.5,-30 1581.5,-10 1561.5,-10"/>
<text text-anchor="start" x="1585.2258" y="-15.4" font-family="sans-serif" font-size="14.00" fill="#000000"> &#160;Exports</text>
<g id="clust7" class="cluster">
<title>cluster_FsListModule</title>
<polygon fill="none" stroke="#000000" stroke-dasharray="1,5" points="8,-70 8,-271 2328,-271 2328,-70 8,-70"/>
</g>
<g id="clust8" class="cluster">
<title>cluster_FsListModule_declarations</title>
<polygon fill="none" stroke="#000000" points="16,-78 16,-130 2320,-130 2320,-78 16,-78"/>
</g>
<g id="clust25" class="cluster">
<title>cluster_FsListModule_exports</title>
<polygon fill="none" stroke="#000000" points="711,-211 711,-263 1773,-263 1773,-211 711,-211"/>
</g>
<g id="clust28" class="cluster">
<title>cluster_PlaygroundModule</title>
<polygon fill="none" stroke="#000000" stroke-dasharray="1,5" points="2336,-138 2336,-339 2799,-339 2799,-138 2336,-138"/>
</g>
<g id="clust29" class="cluster">
<title>cluster_PlaygroundModule_declarations</title>
<polygon fill="none" stroke="#000000" points="2500,-146 2500,-198 2791,-198 2791,-146 2500,-146"/>
</g>
<g id="clust32" class="cluster">
<title>cluster_PlaygroundModule_imports</title>
<polygon fill="none" stroke="#000000" points="2344,-146 2344,-198 2492,-198 2492,-146 2344,-146"/>
</g>
<g id="clust34" class="cluster">
<title>cluster_PlaygroundModule_bootstrap</title>
<polygon fill="none" stroke="#000000" points="2439,-279 2439,-331 2563,-331 2563,-279 2439,-279"/>
</g>
<!-- FsListComponent -->
<g id="node1" class="node">
<title>FsListComponent</title>
<polygon fill="#ffffb3" stroke="#000000" points="2312.3385,-122 2195.6615,-122 2195.6615,-86 2312.3385,-86 2312.3385,-122"/>
<text text-anchor="middle" x="2254" y="-99.8" font-family="Times,serif" font-size="14.00" fill="#000000">FsListComponent</text>
</g>
<!-- FsListModule -->
<g id="node16" class="node">
<title>FsListModule</title>
<polygon fill="#8dd3c7" stroke="#000000" points="1316.0564,-190 1313.0564,-194 1292.0564,-194 1289.0564,-190 1221.9436,-190 1221.9436,-154 1316.0564,-154 1316.0564,-190"/>
<text text-anchor="middle" x="1269" y="-167.8" font-family="Times,serif" font-size="14.00" fill="#000000">FsListModule</text>
</g>
<!-- FsListComponent&#45;&gt;FsListModule -->
<g id="edge1" class="edge">
<title>FsListComponent&#45;&gt;FsListModule</title>
<path fill="none" stroke="#000000" d="M2254,-122.0267C2254,-142.7672 2254,-174 2254,-174 2254,-174 1326.1768,-174 1326.1768,-174"/>
<polygon fill="#000000" stroke="#000000" points="1326.1768,-170.5001 1316.1768,-174 1326.1767,-177.5001 1326.1768,-170.5001"/>
</g>
<!-- FsRowComponent -->
<g id="node2" class="node">
<title>FsRowComponent</title>
<polygon fill="#ffffb3" stroke="#000000" points="2177.5028,-122 2056.4972,-122 2056.4972,-86 2177.5028,-86 2177.5028,-122"/>
<text text-anchor="middle" x="2117" y="-99.8" font-family="Times,serif" font-size="14.00" fill="#000000">FsRowComponent</text>
</g>
<!-- FsRowComponent&#45;&gt;FsListModule -->
<g id="edge2" class="edge">
<title>FsRowComponent&#45;&gt;FsListModule</title>
<path fill="none" stroke="#000000" d="M2117,-122.308C2117,-142.1455 2117,-171 2117,-171 2117,-171 1326.1042,-171 1326.1042,-171"/>
<polygon fill="#000000" stroke="#000000" points="1326.1043,-167.5001 1316.1042,-171 1326.1042,-174.5001 1326.1043,-167.5001"/>
</g>
<!-- FsCellComponent -->
<g id="node3" class="node">
<title>FsCellComponent</title>
<polygon fill="#ffffb3" stroke="#000000" points="2038.892,-122 1921.108,-122 1921.108,-86 2038.892,-86 2038.892,-122"/>
<text text-anchor="middle" x="1980" y="-99.8" font-family="Times,serif" font-size="14.00" fill="#000000">FsCellComponent</text>
</g>
<!-- FsCellComponent&#45;&gt;FsListModule -->
<g id="edge3" class="edge">
<title>FsCellComponent&#45;&gt;FsListModule</title>
<path fill="none" stroke="#000000" d="M1980,-122.1686C1980,-141.0898 1980,-168 1980,-168 1980,-168 1326.2013,-168 1326.2013,-168"/>
<polygon fill="#000000" stroke="#000000" points="1326.2014,-164.5001 1316.2013,-168 1326.2013,-171.5001 1326.2014,-164.5001"/>
</g>
<!-- FsFooterRowComponent -->
<g id="node4" class="node">
<title>FsFooterRowComponent</title>
<polygon fill="#ffffb3" stroke="#000000" points="1902.5518,-122 1745.4482,-122 1745.4482,-86 1902.5518,-86 1902.5518,-122"/>
<text text-anchor="middle" x="1824" y="-99.8" font-family="Times,serif" font-size="14.00" fill="#000000">FsFooterRowComponent</text>
</g>
<!-- FsFooterRowComponent&#45;&gt;FsListModule -->
<g id="edge4" class="edge">
<title>FsFooterRowComponent&#45;&gt;FsListModule</title>
<path fill="none" stroke="#000000" d="M1755.0717,-122.002C1755.0717,-139.6754 1755.0717,-164 1755.0717,-164 1755.0717,-164 1326.4916,-164 1326.4916,-164"/>
<polygon fill="#000000" stroke="#000000" points="1326.4917,-160.5001 1316.4916,-164 1326.4916,-167.5001 1326.4917,-160.5001"/>
</g>
<!-- FsFooterCellComponent -->
<g id="node5" class="node">
<title>FsFooterCellComponent</title>
<polygon fill="#ffffb3" stroke="#000000" points="1727.441,-122 1572.559,-122 1572.559,-86 1727.441,-86 1727.441,-122"/>
<text text-anchor="middle" x="1650" y="-99.8" font-family="Times,serif" font-size="14.00" fill="#000000">FsFooterCellComponent</text>
</g>
<!-- FsFooterCellComponent&#45;&gt;FsListModule -->
<g id="edge5" class="edge">
<title>FsFooterCellComponent&#45;&gt;FsListModule</title>
<path fill="none" stroke="#000000" d="M1600.0156,-122.0352C1600.0156,-138.7344 1600.0156,-161 1600.0156,-161 1600.0156,-161 1326.0749,-161 1326.0749,-161"/>
<polygon fill="#000000" stroke="#000000" points="1326.075,-157.5001 1316.0749,-161 1326.0749,-164.5001 1326.075,-157.5001"/>
</g>
<!-- FsStatusComponent -->
<g id="node6" class="node">
<title>FsStatusComponent</title>
<polygon fill="#ffffb3" stroke="#000000" points="1554.2828,-122 1425.7172,-122 1425.7172,-86 1554.2828,-86 1554.2828,-122"/>
<text text-anchor="middle" x="1490" y="-99.8" font-family="Times,serif" font-size="14.00" fill="#000000">FsStatusComponent</text>
</g>
<!-- FsStatusComponent&#45;&gt;FsListModule -->
<g id="edge6" class="edge">
<title>FsStatusComponent&#45;&gt;FsListModule</title>
<path fill="none" stroke="#000000" d="M1455.1523,-122.2819C1455.1523,-137.9478 1455.1523,-158 1455.1523,-158 1455.1523,-158 1326.4558,-158 1326.4558,-158"/>
<polygon fill="#000000" stroke="#000000" points="1326.4558,-154.5001 1316.4558,-158 1326.4557,-161.5001 1326.4558,-154.5001"/>
</g>
<!-- FsHeadComponent -->
<g id="node7" class="node">
<title>FsHeadComponent</title>
<polygon fill="#ffffb3" stroke="#000000" points="1408.0954,-122 1283.9046,-122 1283.9046,-86 1408.0954,-86 1408.0954,-122"/>
<text text-anchor="middle" x="1346" y="-99.8" font-family="Times,serif" font-size="14.00" fill="#000000">FsHeadComponent</text>
</g>
<!-- FsHeadComponent&#45;&gt;FsListModule -->
<g id="edge7" class="edge">
<title>FsHeadComponent&#45;&gt;FsListModule</title>
<path fill="none" stroke="#000000" d="M1300.115,-122.2228C1300.115,-122.2228 1300.115,-143.7269 1300.115,-143.7269"/>
<polygon fill="#000000" stroke="#000000" points="1296.6151,-143.7269 1300.115,-153.7269 1303.6151,-143.727 1296.6151,-143.7269"/>
</g>
<!-- FsHeadCellComponent -->
<g id="node8" class="node">
<title>FsHeadCellComponent</title>
<polygon fill="#ffffb3" stroke="#000000" points="1265.9284,-122 1118.0716,-122 1118.0716,-86 1265.9284,-86 1265.9284,-122"/>
<text text-anchor="middle" x="1192" y="-99.8" font-family="Times,serif" font-size="14.00" fill="#000000">FsHeadCellComponent</text>
</g>
<!-- FsHeadCellComponent&#45;&gt;FsListModule -->
<g id="edge8" class="edge">
<title>FsHeadCellComponent&#45;&gt;FsListModule</title>
<path fill="none" stroke="#000000" d="M1243.7181,-122.2228C1243.7181,-122.2228 1243.7181,-143.7269 1243.7181,-143.7269"/>
<polygon fill="#000000" stroke="#000000" points="1240.2182,-143.7269 1243.7181,-153.7269 1247.2182,-143.727 1240.2182,-143.7269"/>
</g>
<!-- FsBodyComponent -->
<g id="node9" class="node">
<title>FsBodyComponent</title>
<polygon fill="#ffffb3" stroke="#000000" points="1100.3962,-122 975.6038,-122 975.6038,-86 1100.3962,-86 1100.3962,-122"/>
<text text-anchor="middle" x="1038" y="-99.8" font-family="Times,serif" font-size="14.00" fill="#000000">FsBodyComponent</text>
</g>
<!-- FsBodyComponent&#45;&gt;FsListModule -->
<g id="edge9" class="edge">
<title>FsBodyComponent&#45;&gt;FsListModule</title>
<path fill="none" stroke="#000000" d="M1072.7439,-122.2819C1072.7439,-137.9478 1072.7439,-158 1072.7439,-158 1072.7439,-158 1211.4919,-158 1211.4919,-158"/>
<polygon fill="#000000" stroke="#000000" points="1211.4919,-161.5001 1221.4919,-158 1211.4918,-154.5001 1211.4919,-161.5001"/>
</g>
<!-- FsFooterComponent -->
<g id="node10" class="node">
<title>FsFooterComponent</title>
<polygon fill="#ffffb3" stroke="#000000" points="957.608,-122 826.392,-122 826.392,-86 957.608,-86 957.608,-122"/>
<text text-anchor="middle" x="892" y="-99.8" font-family="Times,serif" font-size="14.00" fill="#000000">FsFooterComponent</text>
</g>
<!-- FsFooterComponent&#45;&gt;FsListModule -->
<g id="edge10" class="edge">
<title>FsFooterComponent&#45;&gt;FsListModule</title>
<path fill="none" stroke="#000000" d="M919.0272,-122.0352C919.0272,-138.7344 919.0272,-161 919.0272,-161 919.0272,-161 1211.8011,-161 1211.8011,-161"/>
<polygon fill="#000000" stroke="#000000" points="1211.8011,-164.5001 1221.8011,-161 1211.8011,-157.5001 1211.8011,-164.5001"/>
</g>
<!-- FsPaginationComponent -->
<g id="node11" class="node">
<title>FsPaginationComponent</title>
<polygon fill="#ffffb3" stroke="#000000" points="808.4438,-122 653.5562,-122 653.5562,-86 808.4438,-86 808.4438,-122"/>
<text text-anchor="middle" x="731" y="-99.8" font-family="Times,serif" font-size="14.00" fill="#000000">FsPaginationComponent</text>
</g>
<!-- FsPaginationComponent&#45;&gt;FsListModule -->
<g id="edge11" class="edge">
<title>FsPaginationComponent&#45;&gt;FsListModule</title>
<path fill="none" stroke="#000000" d="M763.8266,-122.002C763.8266,-139.6754 763.8266,-164 763.8266,-164 763.8266,-164 1211.9282,-164 1211.9282,-164"/>
<polygon fill="#000000" stroke="#000000" points="1211.9282,-167.5001 1221.9282,-164 1211.9281,-160.5001 1211.9282,-167.5001"/>
</g>
<!-- FsListColumnDirective -->
<g id="node12" class="node">
<title>FsListColumnDirective</title>
<polygon fill="#ffffb3" stroke="#000000" points="636.2063,-122 487.7937,-122 487.7937,-86 636.2063,-86 636.2063,-122"/>
<text text-anchor="middle" x="562" y="-99.8" font-family="Times,serif" font-size="14.00" fill="#000000">FsListColumnDirective</text>
</g>
<!-- FsListColumnDirective&#45;&gt;FsListModule -->
<g id="edge12" class="edge">
<title>FsListColumnDirective&#45;&gt;FsListModule</title>
<path fill="none" stroke="#000000" d="M562,-122.1686C562,-141.0898 562,-168 562,-168 562,-168 1211.7894,-168 1211.7894,-168"/>
<polygon fill="#000000" stroke="#000000" points="1211.7895,-171.5001 1221.7894,-168 1211.7894,-164.5001 1211.7895,-171.5001"/>
</g>
<!-- FsListCellDirective -->
<g id="node13" class="node">
<title>FsListCellDirective</title>
<polygon fill="#ffffb3" stroke="#000000" points="470.4215,-122 343.5785,-122 343.5785,-86 470.4215,-86 470.4215,-122"/>
<text text-anchor="middle" x="407" y="-99.8" font-family="Times,serif" font-size="14.00" fill="#000000">FsListCellDirective</text>
</g>
<!-- FsListCellDirective&#45;&gt;FsListModule -->
<g id="edge13" class="edge">
<title>FsListCellDirective&#45;&gt;FsListModule</title>
<path fill="none" stroke="#000000" d="M407,-122.308C407,-142.1455 407,-171 407,-171 407,-171 1211.7356,-171 1211.7356,-171"/>
<polygon fill="#000000" stroke="#000000" points="1211.7356,-174.5001 1221.7356,-171 1211.7355,-167.5001 1211.7356,-174.5001"/>
</g>
<!-- FsListHeaderDirective -->
<g id="node14" class="node">
<title>FsListHeaderDirective</title>
<polygon fill="#ffffb3" stroke="#000000" points="326.0003,-122 181.9997,-122 181.9997,-86 326.0003,-86 326.0003,-122"/>
<text text-anchor="middle" x="254" y="-99.8" font-family="Times,serif" font-size="14.00" fill="#000000">FsListHeaderDirective</text>
</g>
<!-- FsListHeaderDirective&#45;&gt;FsListModule -->
<g id="edge14" class="edge">
<title>FsListHeaderDirective&#45;&gt;FsListModule</title>
<path fill="none" stroke="#000000" d="M254,-122.0267C254,-142.7672 254,-174 254,-174 254,-174 1211.7435,-174 1211.7435,-174"/>
<polygon fill="#000000" stroke="#000000" points="1211.7435,-177.5001 1221.7435,-174 1211.7435,-170.5001 1211.7435,-177.5001"/>
</g>
<!-- FsListFooterDirective -->
<g id="node15" class="node">
<title>FsListFooterDirective</title>
<polygon fill="#ffffb3" stroke="#000000" points="163.6373,-122 24.3627,-122 24.3627,-86 163.6373,-86 163.6373,-122"/>
<text text-anchor="middle" x="94" y="-99.8" font-family="Times,serif" font-size="14.00" fill="#000000">FsListFooterDirective</text>
</g>
<!-- FsListFooterDirective&#45;&gt;FsListModule -->
<g id="edge15" class="edge">
<title>FsListFooterDirective&#45;&gt;FsListModule</title>
<path fill="none" stroke="#000000" d="M94,-122.0449C94,-143.6623 94,-177 94,-177 94,-177 1211.8491,-177 1211.8491,-177"/>
<polygon fill="#000000" stroke="#000000" points="1211.8491,-180.5001 1221.8491,-177 1211.849,-173.5001 1211.8491,-180.5001"/>
</g>
<!-- FsListComponent  -->
<g id="node17" class="node">
<title>FsListComponent </title>
<polygon fill="#fb8072" stroke="#000000" points="1764.8381,-255 1645.1619,-255 1645.1619,-219 1764.8381,-219 1764.8381,-255"/>
<text text-anchor="middle" x="1705" y="-232.8" font-family="Times,serif" font-size="14.00" fill="#000000">FsListComponent </text>
</g>
<!-- FsListModule&#45;&gt;FsListComponent  -->
<g id="edge16" class="edge">
<title>FsListModule&#45;&gt;FsListComponent </title>
<path fill="none" stroke="#000000" stroke-dasharray="5,2" d="M1316.4463,-181C1425.7812,-181 1686.1506,-181 1686.1506,-181 1686.1506,-181 1686.1506,-208.973 1686.1506,-208.973"/>
<polygon fill="#000000" stroke="#000000" points="1682.6507,-208.973 1686.1506,-218.973 1689.6507,-208.973 1682.6507,-208.973"/>
</g>
<!-- FsRowComponent  -->
<g id="node18" class="node">
<title>FsRowComponent </title>
<polygon fill="#fb8072" stroke="#000000" points="1627.0038,-255 1502.9962,-255 1502.9962,-219 1627.0038,-219 1627.0038,-255"/>
<text text-anchor="middle" x="1565" y="-232.8" font-family="Times,serif" font-size="14.00" fill="#000000">FsRowComponent </text>
</g>
<!-- FsListModule&#45;&gt;FsRowComponent  -->
<g id="edge17" class="edge">
<title>FsListModule&#45;&gt;FsRowComponent </title>
<path fill="none" stroke="#000000" stroke-dasharray="5,2" d="M1316.3073,-184C1391.1762,-184 1528.57,-184 1528.57,-184 1528.57,-184 1528.57,-208.7604 1528.57,-208.7604"/>
<polygon fill="#000000" stroke="#000000" points="1525.07,-208.7604 1528.57,-218.7604 1532.07,-208.7604 1525.07,-208.7604"/>
</g>
<!-- FsCellComponent  -->
<g id="node19" class="node">
<title>FsCellComponent </title>
<polygon fill="#fb8072" stroke="#000000" points="1484.8926,-255 1363.1074,-255 1363.1074,-219 1484.8926,-219 1484.8926,-255"/>
<text text-anchor="middle" x="1424" y="-232.8" font-family="Times,serif" font-size="14.00" fill="#000000">FsCellComponent </text>
</g>
<!-- FsListModule&#45;&gt;FsCellComponent  -->
<g id="edge18" class="edge">
<title>FsListModule&#45;&gt;FsCellComponent </title>
<path fill="none" stroke="#000000" stroke-dasharray="5,2" d="M1316.1202,-187C1348.5021,-187 1385.6759,-187 1385.6759,-187 1385.6759,-187 1385.6759,-208.9489 1385.6759,-208.9489"/>
<polygon fill="#000000" stroke="#000000" points="1382.1759,-208.9488 1385.6759,-218.9489 1389.1759,-208.9489 1382.1759,-208.9488"/>
</g>
<!-- FsListColumnDirective  -->
<g id="node20" class="node">
<title>FsListColumnDirective </title>
<polygon fill="#fb8072" stroke="#000000" points="1344.7065,-255 1193.2935,-255 1193.2935,-219 1344.7065,-219 1344.7065,-255"/>
<text text-anchor="middle" x="1269" y="-232.8" font-family="Times,serif" font-size="14.00" fill="#000000">FsListColumnDirective </text>
</g>
<!-- FsListModule&#45;&gt;FsListColumnDirective  -->
<g id="edge19" class="edge">
<title>FsListModule&#45;&gt;FsListColumnDirective </title>
<path fill="none" stroke="#000000" stroke-dasharray="5,2" d="M1269,-190.1061C1269,-190.1061 1269,-208.991 1269,-208.991"/>
<polygon fill="#000000" stroke="#000000" points="1265.5001,-208.9909 1269,-218.991 1272.5001,-208.991 1265.5001,-208.9909"/>
</g>
<!-- FsListCellDirective  -->
<g id="node21" class="node">
<title>FsListCellDirective </title>
<polygon fill="#fb8072" stroke="#000000" points="1174.9208,-255 1045.0792,-255 1045.0792,-219 1174.9208,-219 1174.9208,-255"/>
<text text-anchor="middle" x="1110" y="-232.8" font-family="Times,serif" font-size="14.00" fill="#000000">FsListCellDirective </text>
</g>
<!-- FsListModule&#45;&gt;FsListCellDirective  -->
<g id="edge20" class="edge">
<title>FsListModule&#45;&gt;FsListCellDirective </title>
<path fill="none" stroke="#000000" stroke-dasharray="5,2" d="M1221.686,-187C1187.2492,-187 1146.6233,-187 1146.6233,-187 1146.6233,-187 1146.6233,-208.9489 1146.6233,-208.9489"/>
<polygon fill="#000000" stroke="#000000" points="1143.1233,-208.9488 1146.6233,-218.9489 1150.1233,-208.9489 1143.1233,-208.9488"/>
</g>
<!-- FsListHeaderDirective  -->
<g id="node22" class="node">
<title>FsListHeaderDirective </title>
<polygon fill="#fb8072" stroke="#000000" points="1027.4994,-255 880.5006,-255 880.5006,-219 1027.4994,-219 1027.4994,-255"/>
<text text-anchor="middle" x="954" y="-232.8" font-family="Times,serif" font-size="14.00" fill="#000000">FsListHeaderDirective </text>
</g>
<!-- FsListModule&#45;&gt;FsListHeaderDirective  -->
<g id="edge21" class="edge">
<title>FsListModule&#45;&gt;FsListHeaderDirective </title>
<path fill="none" stroke="#000000" stroke-dasharray="5,2" d="M1221.7967,-184C1145.0101,-184 1001.5258,-184 1001.5258,-184 1001.5258,-184 1001.5258,-208.7604 1001.5258,-208.7604"/>
<polygon fill="#000000" stroke="#000000" points="998.0259,-208.7604 1001.5258,-218.7604 1005.0259,-208.7604 998.0259,-208.7604"/>
</g>
<!-- FsListFooterDirective  -->
<g id="node23" class="node">
<title>FsListFooterDirective </title>
<polygon fill="#fb8072" stroke="#000000" points="862.6369,-255 719.3631,-255 719.3631,-219 862.6369,-219 862.6369,-255"/>
<text text-anchor="middle" x="791" y="-232.8" font-family="Times,serif" font-size="14.00" fill="#000000">FsListFooterDirective </text>
</g>
<!-- FsListModule&#45;&gt;FsListFooterDirective  -->
<g id="edge22" class="edge">
<title>FsListModule&#45;&gt;FsListFooterDirective </title>
<path fill="none" stroke="#000000" stroke-dasharray="5,2" d="M1221.5409,-181C1110.771,-181 844.5072,-181 844.5072,-181 844.5072,-181 844.5072,-208.973 844.5072,-208.973"/>
<polygon fill="#000000" stroke="#000000" points="841.0073,-208.973 844.5072,-218.973 848.0073,-208.973 841.0073,-208.973"/>
</g>
<!-- PlaygroundModule -->
<g id="node26" class="node">
<title>PlaygroundModule</title>
<polygon fill="#8dd3c7" stroke="#000000" points="2563.0982,-255 2560.0982,-259 2539.0982,-259 2536.0982,-255 2438.9018,-255 2438.9018,-219 2563.0982,-219 2563.0982,-255"/>
<text text-anchor="middle" x="2501" y="-232.8" font-family="Times,serif" font-size="14.00" fill="#000000">PlaygroundModule</text>
</g>
<!-- FsListModule&#45;&gt;PlaygroundModule -->
<g id="edge25" class="edge">
<title>FsListModule&#45;&gt;PlaygroundModule</title>
<path fill="none" stroke="#000000" d="M1316.187,-177C1451.9423,-177 1833.8473,-177 1833.8473,-177 1833.8473,-177 1833.8473,-237 1833.8473,-237 1833.8473,-237 2428.835,-237 2428.835,-237"/>
<polygon fill="#000000" stroke="#000000" points="2428.835,-240.5001 2438.835,-237 2428.835,-233.5001 2428.835,-240.5001"/>
</g>
<!-- AppComponent -->
<g id="node24" class="node">
<title>AppComponent</title>
<polygon fill="#ffffb3" stroke="#000000" points="2782.9399,-190 2677.0601,-190 2677.0601,-154 2782.9399,-154 2782.9399,-190"/>
<text text-anchor="middle" x="2730" y="-167.8" font-family="Times,serif" font-size="14.00" fill="#000000">AppComponent</text>
</g>
<!-- AppComponent&#45;&gt;PlaygroundModule -->
<g id="edge23" class="edge">
<title>AppComponent&#45;&gt;PlaygroundModule</title>
<path fill="none" stroke="#000000" d="M2730,-190.1061C2730,-209.3391 2730,-237 2730,-237 2730,-237 2573.2728,-237 2573.2728,-237"/>
<polygon fill="#000000" stroke="#000000" points="2573.2728,-233.5001 2563.2728,-237 2573.2727,-240.5001 2573.2728,-233.5001"/>
</g>
<!-- KitchenSinkComponent -->
<g id="node25" class="node">
<title>KitchenSinkComponent</title>
<polygon fill="#ffffb3" stroke="#000000" points="2659.8229,-190 2508.1771,-190 2508.1771,-154 2659.8229,-154 2659.8229,-190"/>
<text text-anchor="middle" x="2584" y="-167.8" font-family="Times,serif" font-size="14.00" fill="#000000">KitchenSinkComponent</text>
</g>
<!-- KitchenSinkComponent&#45;&gt;PlaygroundModule -->
<g id="edge24" class="edge">
<title>KitchenSinkComponent&#45;&gt;PlaygroundModule</title>
<path fill="none" stroke="#000000" d="M2535.6939,-190.1061C2535.6939,-190.1061 2535.6939,-208.991 2535.6939,-208.991"/>
<polygon fill="#000000" stroke="#000000" points="2532.194,-208.9909 2535.6939,-218.991 2539.194,-208.991 2532.194,-208.9909"/>
</g>
<!-- AppComponent  -->
<g id="node28" class="node">
<title>AppComponent </title>
<polygon fill="#80b1d3" stroke="#000000" points="2555.439,-323 2446.561,-323 2446.561,-287 2555.439,-287 2555.439,-323"/>
<text text-anchor="middle" x="2501" y="-300.8" font-family="Times,serif" font-size="14.00" fill="#000000">AppComponent </text>
</g>
<!-- PlaygroundModule&#45;&gt;AppComponent  -->
<g id="edge27" class="edge">
<title>PlaygroundModule&#45;&gt;AppComponent </title>
<path fill="none" stroke="#000000" stroke-dasharray="1,5" d="M2501,-255.2228C2501,-255.2228 2501,-276.7269 2501,-276.7269"/>
<polygon fill="#000000" stroke="#000000" points="2497.5001,-276.7269 2501,-286.7269 2504.5001,-276.727 2497.5001,-276.7269"/>
</g>
<!-- AppMaterialModule -->
<g id="node27" class="node">
<title>AppMaterialModule</title>
<polygon fill="#8dd3c7" stroke="#000000" points="2483.5772,-190 2480.5772,-194 2459.5772,-194 2456.5772,-190 2352.4228,-190 2352.4228,-154 2483.5772,-154 2483.5772,-190"/>
<text text-anchor="middle" x="2418" y="-167.8" font-family="Times,serif" font-size="14.00" fill="#000000">AppMaterialModule</text>
</g>
<!-- AppMaterialModule&#45;&gt;PlaygroundModule -->
<g id="edge26" class="edge">
<title>AppMaterialModule&#45;&gt;PlaygroundModule</title>
<path fill="none" stroke="#000000" d="M2461.2448,-190.1061C2461.2448,-190.1061 2461.2448,-208.991 2461.2448,-208.991"/>
<polygon fill="#000000" stroke="#000000" points="2457.7448,-208.9909 2461.2448,-218.991 2464.7448,-208.991 2457.7448,-208.9909"/>
</g>
</g>
</svg>
