<?xml version="1.0" encoding="UTF-8" standalone="no"?>
<!DOCTYPE svg PUBLIC "-//W3C//DTD SVG 1.1//EN"
 "http://www.w3.org/Graphics/SVG/1.1/DTD/svg11.dtd">
<!-- Generated by graphviz version 2.40.1 (20161225.0304)
 -->
<!-- Title: dependencies Pages: 1 -->
<svg width="599pt" height="284pt"
 viewBox="0.00 0.00 599.00 284.00" xmlns="http://www.w3.org/2000/svg" xmlns:xlink="http://www.w3.org/1999/xlink">
<g id="graph0" class="graph" transform="scale(1 1) rotate(0) translate(4 280)">
<title>dependencies</title>
<polygon fill="#ffffff" stroke="transparent" points="-4,4 -4,-280 595,-280 595,4 -4,4"/>
<text text-anchor="start" x="274.5091" y="-42.4" font-family="sans-serif" font-weight="bold" font-size="14.00" fill="#000000">Legend</text>
<polygon fill="#ffffb3" stroke="transparent" points="61.5,-10 61.5,-30 81.5,-30 81.5,-10 61.5,-10"/>
<text text-anchor="start" x="85.129" y="-15.4" font-family="sans-serif" font-size="14.00" fill="#000000"> &#160;Declarations</text>
<polygon fill="#8dd3c7" stroke="transparent" points="174.5,-10 174.5,-30 194.5,-30 194.5,-10 174.5,-10"/>
<text text-anchor="start" x="198.2251" y="-15.4" font-family="sans-serif" font-size="14.00" fill="#000000"> &#160;Module</text>
<polygon fill="#80b1d3" stroke="transparent" points="260.5,-10 260.5,-30 280.5,-30 280.5,-10 260.5,-10"/>
<text text-anchor="start" x="284.2812" y="-15.4" font-family="sans-serif" font-size="14.00" fill="#000000"> &#160;Bootstrap</text>
<polygon fill="#fdb462" stroke="transparent" points="357.5,-10 357.5,-30 377.5,-30 377.5,-10 357.5,-10"/>
<text text-anchor="start" x="381.1732" y="-15.4" font-family="sans-serif" font-size="14.00" fill="#000000"> &#160;Providers</text>
<polygon fill="#fb8072" stroke="transparent" points="453.5,-10 453.5,-30 473.5,-30 473.5,-10 453.5,-10"/>
<text text-anchor="start" x="477.2258" y="-15.4" font-family="sans-serif" font-size="14.00" fill="#000000"> &#160;Exports</text>
<g id="clust1" class="cluster">
<title>cluster_PlaygroundModule</title>
<polygon fill="none" stroke="#000000" stroke-dasharray="1,5" points="8,-70 8,-268 583,-268 583,-70 8,-70"/>
</g>
<g id="clust2" class="cluster">
<title>cluster_PlaygroundModule_declarations</title>
<polygon fill="none" stroke="#000000" points="284,-78 284,-130 575,-130 575,-78 284,-78"/>
</g>
<g id="clust5" class="cluster">
<title>cluster_PlaygroundModule_imports</title>
<polygon fill="none" stroke="#000000" points="16,-78 16,-130 276,-130 276,-78 16,-78"/>
</g>
<g id="clust7" class="cluster">
<title>cluster_PlaygroundModule_bootstrap</title>
<polygon fill="none" stroke="#000000" points="232,-208 232,-260 356,-260 356,-208 232,-208"/>
</g>
<!-- AppComponent -->
<g id="node1" class="node">
<title>AppComponent</title>
<polygon fill="#ffffb3" stroke="#000000" points="566.9399,-122 461.0601,-122 461.0601,-86 566.9399,-86 566.9399,-122"/>
<text text-anchor="middle" x="514" y="-99.8" font-family="Times,serif" font-size="14.00" fill="#000000">AppComponent</text>
</g>
<!-- PlaygroundModule -->
<g id="node3" class="node">
<title>PlaygroundModule</title>
<polygon fill="#8dd3c7" stroke="#000000" points="356.0982,-187 353.0982,-191 332.0982,-191 329.0982,-187 231.9018,-187 231.9018,-151 356.0982,-151 356.0982,-187"/>
<text text-anchor="middle" x="294" y="-164.8" font-family="Times,serif" font-size="14.00" fill="#000000">PlaygroundModule</text>
</g>
<!-- AppComponent&#45;&gt;PlaygroundModule -->
<g id="edge1" class="edge">
<title>AppComponent&#45;&gt;PlaygroundModule</title>
<path fill="none" stroke="#000000" d="M514,-122.1061C514,-141.3391 514,-169 514,-169 514,-169 366.161,-169 366.161,-169"/>
<polygon fill="#000000" stroke="#000000" points="366.1611,-165.5001 356.161,-169 366.161,-172.5001 366.1611,-165.5001"/>
</g>
<!-- KitchenSinkComponent -->
<g id="node2" class="node">
<title>KitchenSinkComponent</title>
<polygon fill="#ffffb3" stroke="#000000" points="443.8229,-122 292.1771,-122 292.1771,-86 443.8229,-86 443.8229,-122"/>
<text text-anchor="middle" x="368" y="-99.8" font-family="Times,serif" font-size="14.00" fill="#000000">KitchenSinkComponent</text>
</g>
<!-- KitchenSinkComponent&#45;&gt;PlaygroundModule -->
<g id="edge2" class="edge">
<title>KitchenSinkComponent&#45;&gt;PlaygroundModule</title>
<path fill="none" stroke="#000000" d="M324.1939,-122.1061C324.1939,-122.1061 324.1939,-140.991 324.1939,-140.991"/>
<polygon fill="#000000" stroke="#000000" points="320.694,-140.9909 324.1939,-150.991 327.694,-140.991 320.694,-140.9909"/>
</g>
<!-- AppComponent  -->
<g id="node6" class="node">
<title>AppComponent </title>
<polygon fill="#80b1d3" stroke="#000000" points="348.439,-252 239.561,-252 239.561,-216 348.439,-216 348.439,-252"/>
<text text-anchor="middle" x="294" y="-229.8" font-family="Times,serif" font-size="14.00" fill="#000000">AppComponent </text>
</g>
<!-- PlaygroundModule&#45;&gt;AppComponent  -->
<g id="edge5" class="edge">
<title>PlaygroundModule&#45;&gt;AppComponent </title>
<path fill="none" stroke="#000000" stroke-dasharray="1,5" d="M294,-187.1061C294,-187.1061 294,-205.991 294,-205.991"/>
<polygon fill="#000000" stroke="#000000" points="290.5001,-205.9909 294,-215.991 297.5001,-205.991 290.5001,-205.9909"/>
</g>
<!-- FsListModule -->
<g id="node4" class="node">
<title>FsListModule</title>
<polygon fill="#8dd3c7" stroke="#000000" points="268.0564,-122 265.0564,-126 244.0564,-126 241.0564,-122 173.9436,-122 173.9436,-86 268.0564,-86 268.0564,-122"/>
<text text-anchor="middle" x="221" y="-99.8" font-family="Times,serif" font-size="14.00" fill="#000000">FsListModule</text>
</g>
<!-- FsListModule&#45;&gt;PlaygroundModule -->
<g id="edge3" class="edge">
<title>FsListModule&#45;&gt;PlaygroundModule</title>
<path fill="none" stroke="#000000" d="M250.1143,-122.1061C250.1143,-122.1061 250.1143,-140.991 250.1143,-140.991"/>
<polygon fill="#000000" stroke="#000000" points="246.6144,-140.9909 250.1143,-150.991 253.6144,-140.991 246.6144,-140.9909"/>
</g>
<!-- AppMaterialModule -->
<g id="node5" class="node">
<title>AppMaterialModule</title>
<polygon fill="#8dd3c7" stroke="#000000" points="155.5772,-122 152.5772,-126 131.5772,-126 128.5772,-122 24.4228,-122 24.4228,-86 155.5772,-86 155.5772,-122"/>
<text text-anchor="middle" x="90" y="-99.8" font-family="Times,serif" font-size="14.00" fill="#000000">AppMaterialModule</text>
</g>
<!-- AppMaterialModule&#45;&gt;PlaygroundModule -->
<g id="edge4" class="edge">
<title>AppMaterialModule&#45;&gt;PlaygroundModule</title>
<path fill="none" stroke="#000000" d="M90,-122.1061C90,-141.3391 90,-169 90,-169 90,-169 221.6848,-169 221.6848,-169"/>
<polygon fill="#000000" stroke="#000000" points="221.6848,-172.5001 231.6848,-169 221.6848,-165.5001 221.6848,-172.5001"/>
</g>
</g>
</svg>
